# xmcd
#
# Track frame offsets:
#	150
#	8675
#	20265
#	29692
#	39255
#	50482
#	62810
#	74120
#	85830
#	96330
#	108350
#	117657
#
# Disc length: 1758 seconds
#
# Revision: 0
# Processed by: cddbd v1.4PL0 Copyright (c) Steve Scherf et al.
# Submitted via: dBpowerAMP V4.0
#
DISCID=a206dc0c
DTITLE=Bill Monroe - 36 All Time Favorites #1
DYEAR=1900
DGENRE=Country 
TTITLE0=Scotland
TTITLE1=Gotta Travel On
TTITLE2=No One But My Darlin
TTITLE3=Blue Moon of Kentucky
TTITLE4=New Mule Skinner Blues
TTITLE5=Uncle Pen
TTITLE6=Cotton Fields
TTITLE7=Danny Boy
TTITLE8=Cripple Creek
TTITLE9=The Long Blak Veil
TTITLE10=Fire On The Mountain
TTITLE11=In The Pines
EXTD=
EXTT0=
EXTT1=
EXTT2=
EXTT3=
EXTT4=
EXTT5=
EXTT6=
EXTT7=
EXTT8=
EXTT9=
EXTT10=
EXTT11=
PLAYORDER=
